<?xml version="1.0" standalone="no"?>
<!DOCTYPE svg PUBLIC "-//W3C//DTD SVG 20010904//EN"
 "http://www.w3.org/TR/2001/REC-SVG-20010904/DTD/svg10.dtd">
<svg version="1.0" xmlns="http://www.w3.org/2000/svg"
 width="356.000000pt" height="356.000000pt" viewBox="0 0 356.000000 356.000000"
 preserveAspectRatio="xMidYMid meet">

<g transform="translate(0.000000,356.000000) scale(0.100000,-0.100000)"
fill="#ffffff" stroke="none">
<path d="M1005 3109 c-94 -13 -244 -65 -334 -118 -40 -24 -107 -75 -148 -115
-123 -116 -194 -229 -249 -396 -26 -78 -28 -97 -28 -245 -1 -124 3 -174 17
-225 24 -89 75 -203 122 -275 25 -39 272 -294 709 -733 l671 -672 633 632
c349 348 661 666 694 707 86 107 151 242 179 376 19 88 17 294 -5 384 -85 364
-386 632 -765 681 -238 31 -505 -54 -693 -219 l-45 -40 -39 36 c-133 120 -310
199 -495 223 -94 11 -125 11 -224 -1z"/>
</g>
</svg>
