<?xml version="1.0" standalone="no"?>
<!DOCTYPE svg PUBLIC "-//W3C//DTD SVG 20010904//EN"
 "http://www.w3.org/TR/2001/REC-SVG-20010904/DTD/svg10.dtd">
<svg version="1.0" xmlns="http://www.w3.org/2000/svg"
 width="236.000000pt" height="236.000000pt" viewBox="0 0 236.000000 236.000000"
 preserveAspectRatio="xMidYMid meet">

<g transform="translate(0.000000,236.000000) scale(0.100000,-0.100000)"
fill="#ffffff" stroke="none">
<path d="M815 2185 c-60 -7 -209 -22 -330 -34 -121 -12 -227 -26 -235 -30 -11
-6 -23 -87 -52 -362 l-37 -354 620 -620 619 -621 398 396 398 395 -621 623
c-341 342 -627 621 -635 621 -8 -1 -64 -7 -125 -14z m645 -680 l545 -545 -303
-302 -302 -303 -545 545 c-472 472 -545 549 -545 574 0 28 50 519 54 522 4 4
458 52 501 53 l50 1 545 -545z"/>
<path d="M629 1731 c-36 -36 -39 -43 -39 -96 0 -53 3 -60 39 -96 34 -35 44
-39 87 -39 61 0 92 16 121 59 16 24 23 48 23 84 0 44 -4 53 -39 88 -36 36 -43
39 -96 39 -53 0 -60 -3 -96 -39z"/>
</g>
</svg>
