<?xml version="1.0" standalone="no"?>
<!DOCTYPE svg PUBLIC "-//W3C//DTD SVG 20010904//EN"
 "http://www.w3.org/TR/2001/REC-SVG-20010904/DTD/svg10.dtd">
<svg version="1.0" xmlns="http://www.w3.org/2000/svg"
 width="32.000000pt" height="32.000000pt" viewBox="0 0 32.000000 32.000000"
 preserveAspectRatio="xMidYMid meet">

<g transform="translate(0.000000,32.000000) scale(0.100000,-0.100000)"
fill="#000000" stroke="none">
<path d="M0 160 l0 -160 160 0 160 0 0 160 0 160 -160 0 -160 0 0 -160z m270
109 c14 -26 -4 -51 -34 -47 -24 4 -33 33 -16 53 17 21 37 19 50 -6z m-79 -36
c36 -21 36 -30 3 -64 l-25 -26 30 -13 c17 -7 31 -16 31 -21 0 -17 -45 -79 -57
-79 -17 0 -16 5 3 41 8 17 14 32 12 33 -2 1 -15 7 -30 14 -16 6 -28 17 -28 24
0 7 12 22 28 35 23 19 25 24 12 33 -8 5 -30 7 -47 4 -38 -7 -46 12 -10 26 33
13 46 12 78 -7z m112 -11 c3 -4 -6 -20 -19 -35 -17 -20 -30 -26 -44 -22 -11 4
-17 12 -13 20 3 8 9 13 13 10 4 -2 15 4 25 15 19 21 31 25 38 12z m-163 -111
c-1 -20 -82 -81 -109 -81 -25 0 -9 26 30 48 22 13 42 29 45 37 5 13 34 10 34
-4z"/>
</g>
</svg>
