<?xml version="1.0" standalone="no"?>
<!DOCTYPE svg PUBLIC "-//W3C//DTD SVG 20010904//EN"
 "http://www.w3.org/TR/2001/REC-SVG-20010904/DTD/svg10.dtd">
<svg version="1.0" xmlns="http://www.w3.org/2000/svg"
 width="447.000000pt" height="447.000000pt" viewBox="0 0 447.000000 447.000000"
 preserveAspectRatio="xMidYMid meet">

<g transform="translate(0.000000,447.000000) scale(0.100000,-0.100000)"
fill="#ffffff" stroke="none">
<path d="M3251 4004 c-322 -86 -466 -475 -279 -754 73 -110 197 -188 336 -212
236 -40 486 123 547 357 69 267 -89 541 -350 610 -73 19 -182 18 -254 -1z"/>
<path d="M2135 3523 c-25 -6 -625 -177 -719 -204 -133 -39 -203 -144 -176
-261 25 -101 135 -179 230 -164 19 3 176 46 349 95 172 50 319 88 325 84 6 -4
103 -67 215 -141 199 -130 204 -134 185 -152 -10 -10 -176 -158 -369 -329
-378 -336 -405 -366 -405 -455 0 -53 42 -139 80 -166 16 -11 210 -109 432
-216 222 -108 407 -200 412 -204 4 -5 -89 -165 -207 -357 -118 -191 -222 -364
-232 -383 -22 -43 -22 -127 0 -174 34 -70 119 -126 194 -126 43 0 101 23 136
54 28 25 349 534 593 939 64 106 53 221 -28 289 -21 18 -206 114 -409 213
-204 98 -370 182 -369 186 2 4 158 146 348 315 190 168 356 322 370 341 19 27
25 51 28 102 4 69 -8 110 -47 155 -16 18 -760 515 -810 540 -31 16 -98 26
-126 19z"/>
<path d="M4026 3218 c-21 -4 -51 -16 -67 -25 -15 -9 -128 -126 -249 -260
l-221 -243 -112 75 c-90 61 -113 72 -115 58 -20 -141 -44 -188 -140 -279 l-75
-72 179 -119 c99 -66 193 -127 211 -136 47 -25 131 -22 182 6 56 30 616 644
644 706 69 155 -71 326 -237 289z"/>
<path d="M1567 1743 c-45 -71 -122 -189 -170 -264 l-88 -137 -482 -278 c-265
-153 -499 -289 -520 -303 -91 -59 -120 -188 -64 -283 51 -87 166 -130 251 -94
77 32 1082 619 1112 650 27 27 358 528 370 561 4 9 -32 32 -105 70 -113 58
-156 96 -195 173 -9 17 -19 32 -21 32 -3 0 -43 -57 -88 -127z"/>
</g>
</svg>
