<svg xmlns="http://www.w3.org/2000/svg" viewBox="0 0 16 16" width="16" height="16">
  <!-- 喇叭外形 -->
  <path d="M8 0C5.8 0 4 .7 4 2v12c0 1.3 1.8 2 4 2s4-.7 4-2V2c0-1.3-1.8-2-4-2zm2 14c0 .6-1.1 1-2 1s-2-.4-2-1V2c0-.6 1.1-1 2-1s2 .4 2 1v12z"/>
  <!-- 喇叭声音波形 -->
  <path fill="#666" d="M10.8 9.8c-.1-.2-.3-.3-.6-.3-.3 0-.5.2-.6.3-.2.2-.3.5-.1.7.4.4.7.9 1.1 1.4.3.4.9.5 1.3.2.4-.3.5-.9.2-1.3-.4-.5-.8-1-1.1-1.4zM6.8 10c-.1-.2-.3-.3-.6-.3-.3 0-.5.2-.6.3-.2.2-.3.5-.1.7.4.4.7.9 1.1 1.4.3.4.9.5 1.3.2.4-.3.5-.9.2-1.3-.4-.5-.8-1-1.1-1.4z"/>
</svg>
